<?xml version="1.0" encoding="UTF-8"?>
<svg xmlns="http://www.w3.org/2000/svg" version="1.1" viewBox="0 0 50 50">
  <defs>
    <style>
      .cls-1 {
        fill: #fff;
      }
    </style>
  </defs>
  <!-- Generator: Adobe Illustrator 28.6.0, SVG Export Plug-In . SVG Version: 1.2.0 Build 709)  -->
  <g>
    <g id="Layer_1">
      <path class="cls-1" d="M1,9c-.6,0-1,.4-1,1v14.5c0,6.3,5.2,11.5,11.5,11.5s10.3-4.3,11.2-9.8c.6.9,1.2,1.7,1.9,2.5-1.2,5.3-2.8,11.9-3.5,15-.1.5.2,1.1.7,1.2,0,0,.2,0,.2,0h6.2c.5,0,.9-.3,1-.8.7-2.9,1.5-6.6,2.4-10,1.9,1,4,1.8,6.5,1.8,6.6,0,12-5.4,12-12s-5.4-12-12-12-8.7,2.7-10.7,6.8c-2.1-3.6-3.7-7.5-4.2-9.1-.1-.4-.5-.7-.9-.7h-6.2c-.6,0-1,.4-1,1v14.5c0,1.9-1.6,3.5-3.5,3.5s-3.5-1.6-3.5-3.5v-14.5c0-.6-.4-1-1-1H1ZM2,11h4v13.5c0,3,2.5,5.5,5.5,5.5s5.5-2.5,5.5-5.5v-13.5h4.5c.8,2.2,2.5,6.5,5.1,10.5.3.5.9.6,1.4.3.2-.1.4-.3.4-.6,1.2-4.3,5.1-7.3,9.6-7.3s10,4.5,10,10-4.5,10-10,10-4.9-.9-6.7-2.1c-.5-.3-1.1-.1-1.4.3,0,0,0,.2-.1.3-.8,3.5-1.7,7.3-2.5,10.4h-4.1c.8-3.5,2.2-9.3,3.4-14.3,0-.3,0-.7-.2-.9-1.3-1.4-2.5-3-3.5-4.7-.3-.5-.9-.6-1.4-.3-.3.2-.5.5-.5.8v.8c0,5.2-4.3,9.5-9.5,9.5S2,29.7,2,24.5v-13.5ZM38,18c-2.7,0-5.1,1.9-5.8,4.5,0,.3-.4,1.6-.9,3.8,0,.4,0,.8.3,1,1.5,1.2,3.7,2.7,6.4,2.7s6-2.7,6-6-2.7-6-6-6ZM38,20c2.2,0,4,1.8,4,4s-1.8,4-4,4-3.3-1-4.6-2c.4-1.5.7-3,.7-3,.5-1.8,2-3,3.9-3Z"/>
    </g>
  </g>
</svg>